<svg xmlns="http://www.w3.org/2000/svg" viewBox="0 0 680 460" width="100%">
  <defs>
    <marker id="ab" viewBox="0 0 10 10" refX="8" refY="5" markerWidth="5" markerHeight="5" orient="auto">
      <path d="M2 1L8 5L2 9" fill="none" stroke="#60A5FA" stroke-width="2" stroke-linecap="round" stroke-linejoin="round"/>
    </marker>
    <marker id="ao" viewBox="0 0 10 10" refX="8" refY="5" markerWidth="5" markerHeight="5" orient="auto">
      <path d="M2 1L8 5L2 9" fill="none" stroke="#FB923C" stroke-width="2" stroke-linecap="round" stroke-linejoin="round"/>
    </marker>
    <marker id="ar" viewBox="0 0 10 10" refX="8" refY="5" markerWidth="5" markerHeight="5" orient="auto">
      <path d="M2 1L8 5L2 9" fill="none" stroke="#EF4444" stroke-width="2" stroke-linecap="round" stroke-linejoin="round"/>
    </marker>
    <marker id="ac" viewBox="0 0 10 10" refX="8" refY="5" markerWidth="5" markerHeight="5" orient="auto">
      <path d="M2 1L8 5L2 9" fill="none" stroke="#38BDF8" stroke-width="2" stroke-linecap="round" stroke-linejoin="round"/>
    </marker>
  </defs>

  <!-- ═══ OUTDOOR UNIT CABINET ═══ -->
  <rect x="12" y="32" width="190" height="318" rx="13" fill="#0d1117" stroke="#374151" stroke-width="1.5"/>
  <rect x="12" y="32" width="190" height="28" rx="13" fill="#111827"/>
  <line x1="30"  y1="32" x2="30"  y2="60" stroke="#374151" stroke-width="0.8"/>
  <line x1="42"  y1="32" x2="42"  y2="60" stroke="#374151" stroke-width="0.8"/>
  <line x1="54"  y1="32" x2="54"  y2="60" stroke="#374151" stroke-width="0.8"/>
  <line x1="66"  y1="32" x2="66"  y2="60" stroke="#374151" stroke-width="0.8"/>
  <line x1="78"  y1="32" x2="78"  y2="60" stroke="#374151" stroke-width="0.8"/>
  <line x1="90"  y1="32" x2="90"  y2="60" stroke="#374151" stroke-width="0.8"/>
  <line x1="102" y1="32" x2="102" y2="60" stroke="#374151" stroke-width="0.8"/>
  <line x1="114" y1="32" x2="114" y2="60" stroke="#374151" stroke-width="0.8"/>
  <line x1="126" y1="32" x2="126" y2="60" stroke="#374151" stroke-width="0.8"/>
  <line x1="138" y1="32" x2="138" y2="60" stroke="#374151" stroke-width="0.8"/>
  <line x1="150" y1="32" x2="150" y2="60" stroke="#374151" stroke-width="0.8"/>
  <line x1="162" y1="32" x2="162" y2="60" stroke="#374151" stroke-width="0.8"/>
  <line x1="174" y1="32" x2="174" y2="60" stroke="#374151" stroke-width="0.8"/>
  <line x1="186" y1="32" x2="186" y2="60" stroke="#374151" stroke-width="0.8"/>

  <!-- Fan housing -->
  <circle cx="107" cy="178" r="76" fill="#080b12" stroke="#4B5563" stroke-width="1.5"/>
  <circle cx="107" cy="178" r="70" fill="none" stroke="#1f2937" stroke-width="0.8" stroke-dasharray="5 4"/>

  <!-- Fan blades (6) -->
  <g transform="translate(107,178)">
    <ellipse cx="36" cy="-8" rx="32" ry="11" fill="#1f2937" stroke="#4B5563" stroke-width="1" transform="rotate(0)"/>
    <ellipse cx="36" cy="-8" rx="32" ry="11" fill="#1f2937" stroke="#4B5563" stroke-width="1" transform="rotate(60)"/>
    <ellipse cx="36" cy="-8" rx="32" ry="11" fill="#1f2937" stroke="#4B5563" stroke-width="1" transform="rotate(120)"/>
    <ellipse cx="36" cy="-8" rx="32" ry="11" fill="#1f2937" stroke="#4B5563" stroke-width="1" transform="rotate(180)"/>
    <ellipse cx="36" cy="-8" rx="32" ry="11" fill="#1f2937" stroke="#4B5563" stroke-width="1" transform="rotate(240)"/>
    <ellipse cx="36" cy="-8" rx="32" ry="11" fill="#1f2937" stroke="#4B5563" stroke-width="1" transform="rotate(300)"/>
    <circle cx="0" cy="0" r="15" fill="#374151" stroke="#6B7280" stroke-width="1.5"/>
    <circle cx="0" cy="0" r="7"  fill="#4B5563"/>
  </g>

  <!-- Evaporator coil -->
  <rect x="22" y="275" width="170" height="56" rx="4" fill="#080b12" stroke="#374151" stroke-width="1"/>
  <text x="107" y="271" fill="#4B5563" font-size="8" text-anchor="middle" font-family="sans-serif" letter-spacing="1">EVAPORATOR COIL</text>
  <line x1="34"  y1="275" x2="34"  y2="331" stroke="#374151" stroke-width="0.7"/>
  <line x1="46"  y1="275" x2="46"  y2="331" stroke="#374151" stroke-width="0.7"/>
  <line x1="58"  y1="275" x2="58"  y2="331" stroke="#374151" stroke-width="0.7"/>
  <line x1="70"  y1="275" x2="70"  y2="331" stroke="#374151" stroke-width="0.7"/>
  <line x1="82"  y1="275" x2="82"  y2="331" stroke="#374151" stroke-width="0.7"/>
  <line x1="94"  y1="275" x2="94"  y2="331" stroke="#374151" stroke-width="0.7"/>
  <line x1="106" y1="275" x2="106" y2="331" stroke="#374151" stroke-width="0.7"/>
  <line x1="118" y1="275" x2="118" y2="331" stroke="#374151" stroke-width="0.7"/>
  <line x1="130" y1="275" x2="130" y2="331" stroke="#374151" stroke-width="0.7"/>
  <line x1="142" y1="275" x2="142" y2="331" stroke="#374151" stroke-width="0.7"/>
  <line x1="154" y1="275" x2="154" y2="331" stroke="#374151" stroke-width="0.7"/>
  <line x1="166" y1="275" x2="166" y2="331" stroke="#374151" stroke-width="0.7"/>
  <line x1="178" y1="275" x2="178" y2="331" stroke="#374151" stroke-width="0.7"/>
  <line x1="22"  y1="293" x2="192" y2="293" stroke="#3B82F6" stroke-width="0.8" opacity="0.5"/>
  <line x1="22"  y1="310" x2="192" y2="310" stroke="#3B82F6" stroke-width="0.8" opacity="0.5"/>

  <!-- Air in arrows -->
  <path d="M2,148 L11,148" stroke="#60A5FA" stroke-width="1.5" marker-end="url(#ab)" fill="none"/>
  <path d="M2,165 L11,165" stroke="#60A5FA" stroke-width="1.5" marker-end="url(#ab)" fill="none"/>
  <path d="M2,182 L11,182" stroke="#60A5FA" stroke-width="1.5" marker-end="url(#ab)" fill="none"/>
  <path d="M2,199 L11,199" stroke="#60A5FA" stroke-width="1.5" marker-end="url(#ab)" fill="none"/>
  <text x="4" y="137" fill="#60A5FA" font-size="8" font-family="sans-serif">Air in</text>

  <!-- Outdoor labels -->
  <text x="107" y="358" fill="#D1D5DB" font-size="11" font-weight="600" text-anchor="middle" font-family="sans-serif" letter-spacing="0.5">OUTDOOR UNIT</text>
  <text x="107" y="373" fill="#6B7280" font-size="9" text-anchor="middle" font-family="sans-serif">Fan + Evaporator coil</text>

  <!-- ═══ REFRIGERANT PIPES ═══ -->
  <path d="M202,98 L308,98" stroke="#60A5FA" stroke-width="4" stroke-linecap="round" fill="none" marker-end="url(#ab)"/>
  <path d="M202,92 L308,92" stroke="#1E3A5F" stroke-width="1.5" stroke-linecap="round" fill="none"/>
  <text x="255" y="85" fill="#93C5FD" font-size="8" text-anchor="middle" font-family="sans-serif">Suction — vapor (low pressure)</text>
  <path d="M308,308 L202,308" stroke="#FB923C" stroke-width="2.5" stroke-linecap="round" fill="none" marker-end="url(#ao)"/>
  <text x="255" y="324" fill="#FDBA74" font-size="8" text-anchor="middle" font-family="sans-serif">Liquid line (high pressure)</text>
  <circle cx="202" cy="98"  r="4" fill="#60A5FA"/>
  <circle cx="202" cy="308" r="4" fill="#FB923C"/>
  <circle cx="308" cy="98"  r="4" fill="#60A5FA"/>
  <circle cx="308" cy="308" r="4" fill="#FB923C"/>

  <!-- ═══ INDOOR HYDRAULIC UNIT ═══ -->
  <rect x="310" y="32" width="200" height="318" rx="13" fill="#0d1117" stroke="#374151" stroke-width="1.5"/>

  <!-- Controller display -->
  <rect x="320" y="44" width="180" height="50" rx="8" fill="#111827" stroke="#374151" stroke-width="1"/>
  <rect x="328" y="50" width="86" height="38" rx="4" fill="#052e16" stroke="#059669" stroke-width="1"/>
  <text x="371" y="67" fill="#10B981" font-size="9" text-anchor="middle" font-family="sans-serif">Set: 45°C</text>
  <text x="371" y="80" fill="#6EE7B7" font-size="8" text-anchor="middle" font-family="sans-serif">COP: 3.8</text>
  <circle cx="448" cy="64" r="9" fill="#1f2937" stroke="#374151" stroke-width="1"/>
  <circle cx="468" cy="64" r="9" fill="#1f2937" stroke="#374151" stroke-width="1"/>
  <circle cx="490" cy="64" r="9" fill="#1f2937" stroke="#374151" stroke-width="1"/>
  <text x="410" y="100" fill="#4B5563" font-size="8" text-anchor="middle" font-family="sans-serif" letter-spacing="1">CONTROLLER</text>

  <!-- Heat exchanger / condenser -->
  <rect x="402" y="110" width="100" height="118" rx="7" fill="#080b12" stroke="#374151" stroke-width="1"/>
  <text x="452" y="107" fill="#4B5563" font-size="8" text-anchor="middle" font-family="sans-serif" letter-spacing="0.5">HEAT EXCHANGER</text>
  <path d="M412,126 Q420,118 428,126 Q436,134 444,126 Q452,118 460,126 Q468,134 476,126 Q484,118 496,126" fill="none" stroke="#FB923C" stroke-width="1.5" stroke-linecap="round"/>
  <path d="M412,140 Q420,132 428,140 Q436,148 444,140 Q452,132 460,140 Q468,148 476,140 Q484,132 496,140" fill="none" stroke="#FB923C" stroke-width="1.5" stroke-linecap="round"/>
  <path d="M412,154 Q420,146 428,154 Q436,162 444,154 Q452,146 460,154 Q468,162 476,154 Q484,146 496,154" fill="none" stroke="#FB923C" stroke-width="1.5" stroke-linecap="round"/>
  <line x1="402" y1="168" x2="502" y2="168" stroke="#374151" stroke-width="0.8" stroke-dasharray="3 2"/>
  <path d="M412,180 Q420,172 428,180 Q436,188 444,180 Q452,172 460,180 Q468,188 476,180 Q484,172 496,180" fill="none" stroke="#EF4444" stroke-width="1.5" stroke-linecap="round"/>
  <path d="M412,194 Q420,186 428,194 Q436,202 444,194 Q452,186 460,194 Q468,202 476,194 Q484,186 496,194" fill="none" stroke="#38BDF8" stroke-width="1.5" stroke-linecap="round"/>
  <path d="M412,208 Q420,200 428,208 Q436,216 444,208 Q452,200 460,208 Q468,216 476,208 Q484,200 496,208" fill="none" stroke="#38BDF8" stroke-width="1.5" stroke-linecap="round"/>

  <!-- Expansion valve -->
  <polygon points="392,168 404,155 404,181" fill="#374151" stroke="#6B7280" stroke-width="1.2"/>
  <text x="383" y="195" fill="#9CA3AF" font-size="8" text-anchor="middle" font-family="sans-serif">EXP.</text>
  <text x="383" y="205" fill="#9CA3AF" font-size="8" text-anchor="middle" font-family="sans-serif">VALVE</text>

  <!-- Compressor -->
  <circle cx="356" cy="272" r="32" fill="#1f2937" stroke="#4B5563" stroke-width="1.5"/>
  <circle cx="356" cy="272" r="18" fill="#111827" stroke="#374151" stroke-width="1"/>
  <line x1="344" y1="260" x2="368" y2="284" stroke="#4B5563" stroke-width="1.5" stroke-linecap="round"/>
  <line x1="368" y1="260" x2="344" y2="284" stroke="#4B5563" stroke-width="1.5" stroke-linecap="round"/>
  <circle cx="356" cy="272" r="5" fill="#4B5563"/>
  <text x="356" y="318" fill="#9CA3AF" font-size="8" text-anchor="middle" font-family="sans-serif" letter-spacing="0.5">COMPRESSOR</text>

  <!-- Pump -->
  <circle cx="468" cy="272" r="24" fill="#1f2937" stroke="#4B5563" stroke-width="1.5"/>
  <circle cx="468" cy="272" r="12" fill="#111827" stroke="#374151" stroke-width="1"/>
  <polygon points="468,262 478,272 468,282 458,272" fill="#374151"/>
  <text x="468" y="310" fill="#9CA3AF" font-size="8" text-anchor="middle" font-family="sans-serif" letter-spacing="0.5">PUMP</text>

  <!-- Internal connections (faint) -->
  <path d="M356,240 L356,186 L402,186" fill="none" stroke="#FB923C" stroke-width="1.2" stroke-linecap="round" stroke-linejoin="round" opacity="0.5"/>
  <path d="M392,168 L375,168 L375,240 L388,240" fill="none" stroke="#60A5FA" stroke-width="1.2" stroke-linecap="round" stroke-linejoin="round" opacity="0.5"/>
  <path d="M468,248 L468,228" fill="none" stroke="#EF4444" stroke-width="1.2" stroke-linecap="round" opacity="0.5"/>

  <!-- Indoor labels -->
  <text x="410" y="358" fill="#D1D5DB" font-size="11" font-weight="600" text-anchor="middle" font-family="sans-serif" letter-spacing="0.5">INDOOR UNIT</text>
  <text x="410" y="373" fill="#6B7280" font-size="9" text-anchor="middle" font-family="sans-serif">Hydraulic module</text>

  <!-- ═══ WATER PIPES ═══ -->
  <path d="M502,134 L555,134 L555,14" fill="none" stroke="#EF4444" stroke-width="3" stroke-linecap="round" stroke-linejoin="round" marker-end="url(#ar)"/>
  <path d="M502,194 L555,194 L555,445" fill="none" stroke="#38BDF8" stroke-width="3" stroke-linecap="round" stroke-linejoin="round" marker-end="url(#ac)"/>

  <!-- Water labels -->
  <text x="562" y="26"  fill="#FCA5A5" font-size="10" font-family="sans-serif" font-weight="600">Hot water out</text>
  <text x="562" y="38"  fill="#6B7280" font-size="8"  font-family="sans-serif">to radiators / DHW</text>
  <text x="562" y="428" fill="#BAE6FD" font-size="10" font-family="sans-serif" font-weight="600">Cold return in</text>
  <text x="562" y="440" fill="#6B7280" font-size="8"  font-family="sans-serif">from heating system</text>
</svg>
